<?xml version="1.0" encoding="UTF-8"?>
<svg version="1.1" xmlns="http://www.w3.org/2000/svg" width="512" height="512">
<path d="M0 0 C1.27617187 0.55107422 1.27617187 0.55107422 2.578125 1.11328125 C7.96735533 3.72320851 12.39131199 7.02064002 16.73271179 11.11096191 C17.28775066 11.62902987 17.84278953 12.14709783 18.41464776 12.68086481 C26.42753863 20.21485953 34.18169184 28.01694395 41.96411133 35.78710938 C43.7360984 37.55281725 45.50826957 39.31834039 47.28060913 41.08369446 C52.5538292 46.33786354 57.82289206 51.59618414 63.09105995 56.85541749 C65.08164879 58.84248329 67.07254781 60.82923814 69.06346104 62.81597891 C77.86174449 71.59583212 86.65868844 80.37702489 95.45161915 89.16223907 C97.59200397 91.30071467 99.73239441 93.43918464 101.87280273 95.57763672 C102.404654 96.10900425 102.93650528 96.64037178 103.48447325 97.18784136 C112.11390895 105.80896368 120.75184138 114.42152027 129.39331809 123.0305714 C138.29674707 131.90086686 147.19256845 140.7787348 156.08104151 149.6640172 C161.05939988 154.64021861 166.04094465 159.61313226 171.03104591 164.57756042 C175.72131296 169.24374839 180.40117318 173.92019411 185.07429123 178.60356712 C186.78481219 180.31458211 188.49872517 182.02221422 190.21636391 183.72608376 C204.68754054 198.08776524 217.00615282 211.25687279 218.03125 232.70703125 C217.79347394 257.76268392 201.69634563 272.75385014 185.08447266 289.30371094 C183.25655593 291.13569774 181.42927694 292.96832104 179.60258484 294.80152893 C175.17363035 299.24375573 170.73668631 303.67791643 166.29673077 308.10914508 C162.68593224 311.71314255 159.078104 315.320089 155.472332 318.9291153 C154.9573106 319.4445964 154.44228919 319.9600775 153.91166108 320.49117924 C152.865125 321.53867459 151.81859561 322.58617662 150.77207284 323.63368526 C140.98112701 333.43316571 131.18104253 343.22346524 121.37775747 353.01059952 C112.98131931 361.39363227 104.59278295 369.78450456 96.20996094 378.18115234 C86.45404471 387.95315164 76.6932438 397.72022931 66.92468488 407.47959161 C65.88155019 408.52177074 64.83842171 409.5639561 63.79529953 410.60614777 C63.02561713 411.37513592 63.02561713 411.37513592 62.2403856 412.15965919 C58.6389603 415.75850307 55.04100955 419.3607979 51.44441605 422.96446991 C46.59730129 427.82091532 41.74222201 432.66927711 36.8817997 437.51240349 C35.10312243 439.28712619 33.32697049 441.06438414 31.55359077 442.84440041 C29.12527613 445.2809609 26.68782945 447.708018 24.24795532 450.13299561 C23.55493336 450.83270973 22.8619114 451.53242385 22.14788878 452.25334144 C9.04098955 465.20636496 -4.0656245 471.42958933 -22.41552734 471.36572266 C-35.79272347 471.09753903 -46.93672866 465.69173198 -57 457 C-67.47697589 444.7570187 -72.64811177 431.61486373 -71.875 415.4375 C-69.82272761 396.05751872 -58.57735668 383.98261747 -45.34399414 370.88989258 C-43.85443586 369.40146436 -42.36576133 367.91215129 -40.87789917 366.42202759 C-36.8604866 362.40347316 -32.83091192 358.39732243 -28.79894948 354.39337373 C-24.57837141 350.19789749 -20.36921074 345.99099755 -16.15879822 341.7853241 C-8.19490155 333.83383143 -0.22086881 325.89258549 7.75690514 317.9550187 C16.84341962 308.91330213 25.91850138 299.86014738 34.99266613 290.80603945 C53.64913193 272.1913196 72.3198267 253.59092675 91 235 C89.3631761 230.8180026 86.29384784 228.03601327 83.15670776 224.94984436 C82.55219414 224.34714971 81.94768051 223.74445507 81.32484829 223.12349695 C79.29530812 221.10237906 77.25872551 219.08850777 75.22216797 217.07446289 C73.76642712 215.62747101 72.31116214 214.18000024 70.8563385 212.73208618 C67.71985155 209.61210206 64.58043737 206.49510352 61.43886948 203.38023567 C56.46464408 198.44737493 51.49965707 193.505287 46.53640747 188.56138611 C32.42027846 174.50282709 18.29437316 160.4541443 4.15332031 146.4206543 C-3.65467534 138.67189112 -11.45356199 130.91407691 -19.24272239 123.14637941 C-24.1662391 118.23744489 -29.10059339 113.33976357 -34.04338384 108.45024025 C-37.12963354 105.39189777 -40.20518183 102.3229629 -43.27791023 99.25104141 C-44.69564136 97.83784688 -46.11762348 96.42890091 -47.54433632 95.02477455 C-61.05987821 81.71444238 -70.97306927 69.01824331 -71.984375 49.34375 C-72.05170411 34.93531964 -66.75629112 21.62152794 -57 11 C-42.06977353 -2.04331001 -18.8630497 -8.72917726 0 0 Z " fill="#000000" transform="translate(183,22)"/>
</svg>
